# xmcd CD database file
#
# Track frame offsets:
#	150
#	11980
#	24267
#	37985
#	50410
#	64197
#	76750
#	93252
#	106437
#	121240
#
# Disc length: 1821 seconds
#
# Revision: 0
# Processed by: cddbd v1.5.2PL0 Copyright (c) Steve Scherf et al.
# Submitted via: CDex 1.70beta2
#
DISCID=72071b0a
DTITLE=Rose, Joanne - Cdn. - Someone New To You...
DYEAR=1900
DGENRE=Country
TTITLE0=Wake Up Call
TTITLE1=Love, One Good Love
TTITLE2=I've Heard It All
TTITLE3=Love Must Be Telling Me Something
TTITLE4=Someone New To You
TTITLE5=Do I Do It To You Too
TTITLE6=You Had Me By a\A Heartbeat
TTITLE7=Mountain of Her Memory
TTITLE8=Bury the Bed
TTITLE9=Any Other Fool
EXTD=
EXTT0=
EXTT1=
EXTT2=
EXTT3=
EXTT4=
EXTT5=
EXTT6=
EXTT7=
EXTT8=
EXTT9=
PLAYORDER=
